<mxfile modified="2024-07-01T20:47:16.236Z" host="app.diagrams.net" agent="Mozilla/5.0 (X11; Linux x86_64) AppleWebKit/537.36 (KHTML, like Gecko) Chrome/126.0.0.0 Safari/537.36" etag="j6hLxnDB-ZPuQ2hZjSHb" version="24.6.4" type="github">
  <diagram id="7gcUSTIZ7YSJ5vT40chW" name="Page-1">
    <mxGraphModel dx="2200" dy="1105" grid="0" gridSize="10" guides="1" tooltips="1" connect="1" arrows="1" fold="1" page="1" pageScale="1" pageWidth="1169" pageHeight="827" math="0" shadow="0">
      <root>
        <mxCell id="0" />
        <mxCell id="1" parent="0" />
        <mxCell id="SZY12_XKgGBlkoAp8IEY-12" style="edgeStyle=orthogonalEdgeStyle;rounded=0;orthogonalLoop=1;jettySize=auto;html=1;strokeColor=#808080;exitX=0.87;exitY=0.65;exitDx=0;exitDy=0;exitPerimeter=0;entryX=0;entryY=0.5;entryDx=0;entryDy=0;" parent="1" source="_bdZBCu3duX-sdHMDtxV-2" target="_bdZBCu3duX-sdHMDtxV-10" edge="1">
          <mxGeometry relative="1" as="geometry">
            <mxPoint x="180" y="260" as="sourcePoint" />
            <mxPoint x="240" y="253" as="targetPoint" />
          </mxGeometry>
        </mxCell>
        <mxCell id="_bdZBCu3duX-sdHMDtxV-2" value="" style="verticalLabelPosition=bottom;html=1;verticalAlign=top;align=center;strokeColor=none;fillColor=#00BEF2;shape=mxgraph.azure.user;" vertex="1" parent="1">
          <mxGeometry x="120" y="221" width="47.5" height="50" as="geometry" />
        </mxCell>
        <mxCell id="_bdZBCu3duX-sdHMDtxV-5" value="" style="outlineConnect=0;dashed=0;verticalLabelPosition=bottom;verticalAlign=top;align=center;html=1;shape=mxgraph.aws3.application_load_balancer;fillColor=#F58534;gradientColor=none;" vertex="1" parent="1">
          <mxGeometry x="320" y="217" width="69" height="72" as="geometry" />
        </mxCell>
        <mxCell id="_bdZBCu3duX-sdHMDtxV-6" style="edgeStyle=orthogonalEdgeStyle;rounded=0;orthogonalLoop=1;jettySize=auto;html=1;exitX=1;exitY=0.5;exitDx=0;exitDy=0;entryX=0;entryY=0.5;entryDx=0;entryDy=0;entryPerimeter=0;" edge="1" parent="1" source="_bdZBCu3duX-sdHMDtxV-10" target="_bdZBCu3duX-sdHMDtxV-5">
          <mxGeometry relative="1" as="geometry">
            <mxPoint x="298" y="253" as="sourcePoint" />
          </mxGeometry>
        </mxCell>
        <mxCell id="_bdZBCu3duX-sdHMDtxV-10" value="" style="shape=image;verticalLabelPosition=bottom;labelBackgroundColor=#ffffff;verticalAlign=top;aspect=fixed;imageAspect=0;image=data:image/svg+xml,PHN2ZyB4bWxuczpjYz0iaHR0cDovL2NyZWF0aXZlY29tbW9ucy5vcmcvbnMjIiB4bWxuczpkYz0iaHR0cDovL3B1cmwub3JnL2RjL2VsZW1lbnRzLzEuMS8iIHhtbG5zOmlua3NjYXBlPSJodHRwOi8vd3d3Lmlua3NjYXBlLm9yZy9uYW1lc3BhY2VzL2lua3NjYXBlIiB4bWxuczpyZGY9Imh0dHA6Ly93d3cudzMub3JnLzE5OTkvMDIvMjItcmRmLXN5bnRheC1ucyMiIHhtbG5zOnNvZGlwb2RpPSJodHRwOi8vc29kaXBvZGkuc291cmNlZm9yZ2UubmV0L0RURC9zb2RpcG9kaS0wLmR0ZCIgeG1sbnM6c3ZnPSJodHRwOi8vd3d3LnczLm9yZy8yMDAwL3N2ZyIgeG1sbnM9Imh0dHA6Ly93d3cudzMub3JnLzIwMDAvc3ZnIiB4bWxuczp4bGluaz0iaHR0cDovL3d3dy53My5vcmcvMTk5OS94bGluayIgdmVyc2lvbj0iMS4xIiBpZD0ic3ZnMTQ0OTk0IiBpbmtzY2FwZTp2ZXJzaW9uPSIwLjkyLjMgKDI0MDU1NDYsIDIwMTgtMDMtMTEpIiBzb2RpcG9kaTpkb2NuYW1lPSJkbnMuc3ZnIiB4PSIwcHgiIHk9IjBweCIgdmlld0JveD0iMCAwIDcyLjAxIDcyLjAxIiBzdHlsZT0iZW5hYmxlLWJhY2tncm91bmQ6bmV3IDAgMCA3Mi4wMSA3Mi4wMTsiIHhtbDpzcGFjZT0icHJlc2VydmUiPiYjeGE7PHNvZGlwb2RpOm5hbWVkdmlldyBib3JkZXJjb2xvcj0iIzY2NjY2NiIgYm9yZGVyb3BhY2l0eT0iMSIgZml0LW1hcmdpbi1ib3R0b209IjAiIGZpdC1tYXJnaW4tbGVmdD0iMCIgZml0LW1hcmdpbi1yaWdodD0iMCIgZml0LW1hcmdpbi10b3A9IjAiIGdyaWR0b2xlcmFuY2U9IjEwIiBndWlkZXRvbGVyYW5jZT0iMTAiIGlkPSJuYW1lZHZpZXcxNDQ5OTYiIGlua3NjYXBlOmN1cnJlbnQtbGF5ZXI9InN2ZzE0NDk5NCIgaW5rc2NhcGU6Y3g9IjQ2LjE2MTYzMSIgaW5rc2NhcGU6Y3k9IjQ5Ljg0NzM4IiBpbmtzY2FwZTpwYWdlb3BhY2l0eT0iMCIgaW5rc2NhcGU6cGFnZXNoYWRvdz0iMiIgaW5rc2NhcGU6d2luZG93LWhlaWdodD0iMTAxNyIgaW5rc2NhcGU6d2luZG93LW1heGltaXplZD0iMSIgaW5rc2NhcGU6d2luZG93LXdpZHRoPSIxOTIwIiBpbmtzY2FwZTp3aW5kb3cteD0iLTgiIGlua3NjYXBlOndpbmRvdy15PSItOCIgaW5rc2NhcGU6em9vbT0iOC41MjU1MTY2IiBvYmplY3R0b2xlcmFuY2U9IjEwIiBwYWdlY29sb3I9IiNmZmZmZmYiIHNob3dncmlkPSJmYWxzZSI+JiN4YTsJPC9zb2RpcG9kaTpuYW1lZHZpZXc+JiN4YTs8ZyBpZD0iZzE0NDk5MiIgdHJhbnNmb3JtPSJ0cmFuc2xhdGUoLTMuNTE1LC0zLjUxMDMpIj4mI3hhOwk8dGl0bGUgaWQ9InRpdGxlMTQ0OTU3Ij5QYWdlLTE8L3RpdGxlPiYjeGE7CTxnIGlkPSJncm91cDgzMzItMSIgdHJhbnNmb3JtPSJ0cmFuc2xhdGUoMCwtMC43NSkiPiYjeGE7CQk8dGl0bGUgaWQ9InRpdGxlMTQ0OTU5Ij5ETlM8L3RpdGxlPiYjeGE7CQk8ZyBpZD0ic2hhcGU4MzMzLTIiIHRyYW5zZm9ybT0idHJhbnNsYXRlKDMuNTE1MzcpIj4mI3hhOwkJCTx0aXRsZSBpZD0idGl0bGUxNDQ5NjEiPlNoZWV0LjgzMzM8L3RpdGxlPiYjeGE7CQkJPGNpcmNsZSBpZD0iZWxsaXBzZTE0NDk2MyIgc3R5bGU9ImZpbGw6IzAwNzJDNjsiIGN4PSIzNiIgY3k9IjQwLjI3IiByPSIzNiIvPiYjeGE7CQk8L2c+JiN4YTsJCTxnIGlkPSJzaGFwZTgzMzQtNCIgdHJhbnNmb3JtPSJ0cmFuc2xhdGUoMCwtMTAuNTQ0NykiPiYjeGE7CQkJPHRpdGxlIGlkPSJ0aXRsZTE0NDk2NiI+U2hlZXQuODMzNDwvdGl0bGU+JiN4YTsJCQk8cGF0aCBpZD0icGF0aDE0NDk2OCIgaW5rc2NhcGU6Y29ubmVjdG9yLWN1cnZhdHVyZT0iMCIgc3R5bGU9ImZpbGw6I0ZGRkZGRjtmaWxsLW9wYWNpdHk6MC4yOyIgZD0iTTE0LjA2LDc2LjI3ICAgICBDMCw2Mi4yMSwwLDM5LjQxLDE0LjA2LDI1LjM1czM2Ljg2LTE0LjA2LDUwLjkyLDBMMTQuMDYsNzYuMjd6Ii8+JiN4YTsJCTwvZz4mI3hhOwkJPGcgaWQ9InNoYXBlODMzNS02IiB0cmFuc2Zvcm09InRyYW5zbGF0ZSg2LjM5NTY0LC0zLjAxODUyKSI+JiN4YTsJCQk8dGl0bGUgaWQ9InRpdGxlMTQ0OTcxIj5TaGVldC44MzM1PC90aXRsZT4mI3hhOwkJCTxwYXRoIGlkPSJwYXRoMTQ0OTczIiBpbmtzY2FwZTpjb25uZWN0b3ItY3VydmF0dXJlPSIwIiBzdHlsZT0iZmlsbDojRkZGRkZGO2ZpbGwtb3BhY2l0eTowLjg7IiBkPSJNNjYuMjUsNDMuMjggICAgIGMwLTcuNDItMi41Mi0xNC41Ny03LjE2LTIwLjRsLTAuMjYtMC4yN2MtMC4xNC0wLjEzLTAuMTQtMC4yNi0wLjI3LTAuNGwtMi4xMi0yLjI1Yy02LjIzLTYuMzYtMTQuNDQtOS44LTIzLjMyLTkuOCAgICAgYzAsMCwwLDAtMC4xMywwaC0wLjEzYy04Ljc1LDAuMTMtMTYuODMsMy40NC0yMy4wNiw5LjY3bC0yLjI1LDIuMzhjLTAuMTMsMC4xNC0wLjEzLDAuMjctMC4yNiwwLjRsLTAuMjcsMC4xMyAgICAgQzIuNTIsMjguNTcsMCwzNS44NiwwLDQzLjI4czIuNTIsMTQuNTcsNy4xNSwyMC40bDAuMjcsMC4yN2MwLjEzLDAuMTMsMC4xMywwLjI2LDAuMjYsMC40TDkuOCw2Ni42ICAgICBjNi4yMyw2LjIzLDE0LjMxLDkuNjcsMjMuMDYsOS42N2gwLjEzYzAsMCwwLDAsMC4xMywwYzguNzUsMCwxNy4wOS0zLjQ0LDIzLjMyLTkuNjdsMi4xMi0yLjM5YzAuMTMtMC4xMywwLjEzLTAuMjYsMC4yNy0wLjM5ICAgICBsMC4yNi0wLjI3QzYzLjczLDU3Ljk5LDY2LjI1LDUwLjcsNjYuMjUsNDMuMjh6IE01Mi44NiwyMS42OGMtMC4xMywwLTAuMjYsMC4xNC0wLjM5LDAuMTRjLTAuMjcsMC4xMy0wLjUzLDAuMjYtMC42NywwLjI2ICAgICBjLTAuNTMsMC4yNy0xLjE5LDAuNC0xLjg1LDAuNjZjLTAuMTMsMC0wLjI3LDAuMTQtMC40LDAuMTRjLTAuNzksMC4yNi0xLjQ2LDAuMzktMi4yNSwwLjY2Yy0wLjEzLDAtMC40LDAuMTMtMC41MywwLjEzICAgICBjLTEuMTktMy4xOC0yLjY1LTUuOTYtNC4zNy04LjA4QzQ2LjI0LDE2Ljc4LDQ5LjgyLDE4LjksNTIuODYsMjEuNjh6IE0zMi44NiwxNGgwLjEzYzMuNTgsMCw3LjI5LDMuODQsOS45NCwxMC40NyAgICAgYy0zLjA1LDAuNTMtNi4zNiwwLjc5LTkuODEsMC43OWMtMy40NCwwLTYuODktMC4yNi0xMC4wNy0wLjc5QzI1LjU3LDE3Ljk3LDI5LjI4LDE0LjEzLDMyLjg2LDE0eiBNMjMuNDUsMTUuNzIgICAgIGMtMS41OSwyLjEyLTMuMDUsNC43Ny00LjI0LDcuOTVjLTAuMTMsMC0wLjEzLDAtMC4yNiwwYy0wLjgtMC4yNi0xLjU5LTAuNC0yLjI2LTAuNjZjLTAuMTMsMC0wLjI2LTAuMTMtMC4zOS0wLjEzICAgICBjLTAuNTMtMC4yNy0xLjItMC41My0xLjczLTAuOGMtMC4yNi0wLjEzLTAuMzktMC4xMy0wLjY2LTAuMjZjLTAuMTMtMC4xNC0wLjI2LTAuMTQtMC41My0wLjI3ICAgICBDMTYuNDMsMTkuMDMsMTkuNzQsMTYuOTEsMjMuNDUsMTUuNzJ6IE0xMy4zOCw2NC44OGMwLjEzLDAsMC4yNy0wLjE0LDAuNC0wLjE0YzAuMjYtMC4xMywwLjQtMC4xMywwLjY2LTAuMjYgICAgIGMwLjUzLTAuMjcsMS4xOS0wLjQsMS44Ni0wLjY2YzAuMTMsMCwwLjI2LTAuMTQsMC4zOS0wLjE0YzAuOC0wLjI2LDEuNDYtMC4zOSwyLjI2LTAuNjZjMC4xMywwLDAuMTMsMCwwLjI2LDAgICAgIGMxLjE5LDMuMDUsMi42NSw1LjgzLDQuMjQsNy45NUMxOS43NCw2OS42NSwxNi4zLDY3LjUzLDEzLjM4LDY0Ljg4eiBNMzIuOTksNzIuNTZoLTAuMTNjLTMuNTgtMC4xMy03LjI5LTMuODQtOS44MS0xMC4zMyAgICAgYzMuMTgtMC41Myw2LjYzLTAuOCwxMC4wNy0wLjhjMy40NSwwLDYuNjMsMC4yNyw5LjgxLDAuOEM0MC40MSw2OC43MiwzNi41Nyw3Mi41NiwzMi45OSw3Mi41NnogTTQyLjQsNzAuOTcgICAgIGMxLjcyLTIuMTIsMy4xOC00LjksNC4zNy04LjA4YzAuMTMsMCwwLjQsMC4xMywwLjUzLDAuMTNjMC43OSwwLjI3LDEuNTksMC40LDIuMjUsMC42NmMwLjEzLDAsMC4yNywwLjE0LDAuNCwwLjE0ICAgICBjMC42NiwwLjI2LDEuMTksMC4zOSwxLjg1LDAuNjZjMC4yNywwLjEzLDAuNCwwLjEzLDAuNjcsMC4yNmMwLjEzLDAsMC4yNiwwLjE0LDAuNTMsMC4yN0M0OS44Miw2Ny42Niw0Ni4yNCw2OS43OCw0Mi40LDcwLjk3eiAgICAgIE01NS43OCw2MS44M2MtMC40LDAtMC42Ni0wLjEzLTEuMDYtMC4yN2MtMC40LTAuMTMtMC45My0wLjM5LTEuMzMtMC41M2MtMC4xMywwLTAuMjYtMC4xMy0wLjM5LTAuMTMgICAgIGMtMS41OS0wLjY2LTMuMzItMS4wNi01LjA0LTEuNTljMC40LTEuNTksMC44LTMuMTgsMS4wNi00Ljc3aC0zLjk3Yy0wLjI3LDEuNDYtMC41MywyLjc4LTAuOTMsMy45OCAgICAgYy0zLjQ0LTAuNjctNy4xNS0wLjkzLTExLTAuOTNjLTMuOTcsMC03LjY4LDAuNC0xMS4yNiwxLjA2Yy0wLjQtMS4zMy0wLjY2LTIuNjUtMC45My00LjExaC0zLjk3YzAuMjYsMS43MiwwLjY2LDMuMzEsMS4wNiw0LjkgICAgIGMtMS41OSwwLjQtMy4xOCwwLjkzLTQuNjQsMS40NmMtMC4xMywwLjEzLTAuNCwwLjEzLTAuNTMsMC4yN2MtMC40LDAuMTMtMC45MywwLjM5LTEuMzIsMC41M2MtMC4yNywwLTAuNjcsMC4xMy0wLjkzLDAuMjYgICAgIGMtMy45OC00Ljc3LTYuMjMtMTAuNzMtNi42My0xNi44M2gzLjMydi0zLjg0SDMuOTdjMC40LTYuMDksMi42NS0xMS45Miw2LjUtMTYuNTZsMC4xMy0wLjEzYzAuMjYsMC4xMywwLjY2LDAuMjYsMC45MywwLjQgICAgIGMwLjUzLDAuMjYsMC45MiwwLjM5LDEuNDUsMC42NmMwLjE0LDAsMC4yNywwLjEzLDAuNCwwLjEzYzEuNDYsMC41MywzLjA1LDEuMDYsNC43NywxLjQ2Yy0wLjQsMS40Ni0wLjY2LDIuOTEtMC45Myw0LjM3aDMuOTggICAgIGMwLjI2LTEuMTksMC41My0yLjUyLDAuNzktMy41OGMzLjU4LDAuNjcsNy40MiwxLjA2LDExLjI3LDEuMDZjMy44NCwwLDcuNTUtMC4zOSwxMC45OS0wLjkyYzAuMjcsMS4wNiwwLjUzLDIuMjUsMC44LDMuNTdoMy45NyAgICAgYy0wLjI2LTEuNDUtMC41My0yLjkxLTAuOTMtNC4zN2MxLjczLTAuNCwzLjMyLTAuOTMsNC45MS0xLjU5YzAuMTMsMCwwLjM5LTAuMTMsMC41My0wLjEzYzAuNTMtMC4xMywwLjkyLTAuNCwxLjQ1LTAuNTMgICAgIGMwLjI3LTAuMTMsMC42Ny0wLjI3LDAuOTMtMC40YzMuODQsNC43Nyw2LjIzLDEwLjYsNi42MywxNi43aC0zLjk4djMuODRoMy45OEM2MS44Nyw1MS4yMyw1OS42Miw1Ny4xOSw1NS43OCw2MS44M3oiLz4mI3hhOwkJPC9nPiYjeGE7CQk8ZyBpZD0ic2hhcGU4MzM2LTgiIHRyYW5zZm9ybT0idHJhbnNsYXRlKDE2Ljk3OTIsLTI3LjQwNDMpIj4mI3hhOwkJCTx0aXRsZSBpZD0idGl0bGUxNDQ5NzYiPlNoZWV0LjgzMzY8L3RpdGxlPiYjeGE7CQkJPHBhdGggaWQ9InBhdGgxNDQ5NzgiIGlua3NjYXBlOmNvbm5lY3Rvci1jdXJ2YXR1cmU9IjAiIHN0eWxlPSJmaWxsOiNGRkZGRkY7IiBkPSJNMTQuMjIsNjcuNDZjMCwxLjU3LTAuMjEsMi45Mi0wLjYyLDQuMDMgICAgIGMtMC40MSwxLjEyLTEsMi4wMy0xLjc2LDIuNzNjLTAuNzcsMC43MS0xLjcsMS4yMy0yLjgsMS41NmMtMS4xLDAuMzMtMi40MSwwLjQ5LTMuOTIsMC40OUgxLjAzYy0wLjI5LDAtMC41NC0wLjA5LTAuNzMtMC4yNiAgICAgQzAuMSw3NS44NCwwLDc1LjU2LDAsNzUuMTdWNjAuMjVjMC0wLjM4LDAuMS0wLjY2LDAuMy0wLjgzYzAuMi0wLjE4LDAuNDQtMC4yNiwwLjczLTAuMjZoNC4zOWMxLjUzLDAsMi44MiwwLjE4LDMuODgsMC41MyAgICAgYzEuMDcsMC4zNiwxLjk2LDAuODksMi42OSwxLjU5czEuMjgsMS41NywxLjY2LDIuNlMxNC4yMiw2Ni4xMSwxNC4yMiw2Ny40NnogTTEwLjYyLDY3LjU4YzAtMC44MS0wLjA5LTEuNTYtMC4yOC0yLjI2ICAgICBjLTAuMTktMC43LTAuNS0xLjMtMC45Mi0xLjgxQzksNjMsOC40Nyw2Mi42LDcuODEsNjIuMzFjLTAuNjYtMC4yOS0xLjUyLTAuNDMtMi41OS0wLjQzSDMuNDZ2MTEuNjRoMS44MiAgICAgYzAuOTUsMCwxLjc1LTAuMTIsMi40LTAuMzdjMC42Ni0wLjI1LDEuMi0wLjYyLDEuNjQtMS4xMmMwLjQzLTAuNSwwLjc2LTEuMTIsMC45OC0xLjg2QzEwLjUxLDY5LjQzLDEwLjYyLDY4LjU3LDEwLjYyLDY3LjU4eiIvPiYjeGE7CQk8L2c+JiN4YTsJCTxnIGlkPSJzaGFwZTgzMzctMTAiIHRyYW5zZm9ybT0idHJhbnNsYXRlKDM0LjA1MiwtMjcuMzI1MSkiPiYjeGE7CQkJPHRpdGxlIGlkPSJ0aXRsZTE0NDk4MSI+U2hlZXQuODMzNzwvdGl0bGU+JiN4YTsJCQk8cGF0aCBpZD0icGF0aDE0NDk4MyIgaW5rc2NhcGU6Y29ubmVjdG9yLWN1cnZhdHVyZT0iMCIgc3R5bGU9ImZpbGw6I0ZGRkZGRjsiIGQ9Ik0xNC4xMSw3NC45OGMwLDAuMi0wLjAzLDAuMzgtMC4xLDAuNTQgICAgIGMtMC4wNywwLjE2LTAuMTcsMC4yOS0wLjI5LDAuNGMtMC4xMSwwLjEtMC4yNiwwLjE4LTAuNDIsMC4yM3MtMC4zMywwLjA3LTAuNSwwLjA3aC0xLjQ4Yy0wLjMxLDAtMC41Ny0wLjAzLTAuOC0wLjA5ICAgICBjLTAuMjItMC4wNi0wLjQzLTAuMTgtMC42Mi0wLjM0Yy0wLjE5LTAuMTYtMC4zNy0wLjM4LTAuNTUtMC42NmMtMC4xNy0wLjI4LTAuMzctMC42NC0wLjU5LTEuMDhsLTQuMjYtOCAgICAgYy0wLjI1LTAuNDgtMC41LTAuOTktMC43NS0xLjU0Yy0wLjI2LTAuNTUtMC40OS0xLjA5LTAuNjktMS42MUgzLjAzYzAuMDQsMC42NCwwLjA2LDEuMjcsMC4wOCwxLjkgICAgIGMwLjAyLDAuNjMsMC4wMywxLjI4LDAuMDMsMS45NXY4Ljk1YzAsMC4wOS0wLjAzLDAuMTctMC4wOCwwLjI0cy0wLjEzLDAuMTMtMC4yNSwwLjE4cy0wLjI4LDAuMDktMC40OCwwLjExICAgICBjLTAuMiwwLjAzLTAuNDcsMC4wNC0wLjc4LDAuMDRzLTAuNTctMC4wMS0wLjc3LTAuMDRzLTAuMzYtMC4wNi0wLjQ3LTAuMTFjLTAuMTItMC4wNS0wLjItMC4xMS0wLjI0LTAuMTggICAgIEMwLjAyLDc1Ljg3LDAsNzUuNzksMCw3NS43VjYwLjMyYzAtMC40MSwwLjEyLTAuNzIsMC4zNi0wLjkzczAuNTQtMC4zMSwwLjktMC4zMWgxLjg2YzAuMzMsMCwwLjYyLDAuMDIsMC44NSwwLjA4ICAgICBzMC40MywwLjE1LDAuNjEsMC4yOWMwLjE4LDAuMTMsMC4zNSwwLjMxLDAuNTEsMC41NWMwLjE2LDAuMjMsMC4zMiwwLjUyLDAuNDksMC44NmwzLjMzLDYuMjZjMC4xOSwwLjM4LDAuMzksMC43NSwwLjU4LDEuMTIgICAgIGMwLjE5LDAuMzYsMC4zNywwLjczLDAuNTUsMS4xYzAuMTcsMC4zNiwwLjM0LDAuNzIsMC41MSwxLjA3YzAuMTcsMC4zNiwwLjMzLDAuNzEsMC40OSwxLjA2aDAuMDEgICAgIGMtMC4wMi0wLjYyLTAuMDQtMS4yNi0wLjA2LTEuOTNjLTAuMDEtMC42Ny0wLjAxLTEuMzEtMC4wMS0xLjkydi04LjAzYzAtMC4wOCwwLjAyLTAuMTYsMC4wNy0wLjI0ICAgICBjMC4wNS0wLjA3LDAuMTQtMC4xMywwLjI3LTAuMThjMC4xMi0wLjA1LDAuMjgtMC4wOSwwLjQ5LTAuMTFjMC4yLTAuMDIsMC40Ni0wLjAzLDAuNzgtMC4wM2MwLjMsMCwwLjU1LDAuMDEsMC43NSwwLjAzICAgICBzMC4zNiwwLjA2LDAuNDcsMC4xMWMwLjExLDAuMDUsMC4xOSwwLjExLDAuMjMsMC4xOGMwLjA1LDAuMDgsMC4wNywwLjE1LDAuMDcsMC4yNEwxNC4xMSw3NC45OHoiLz4mI3hhOwkJPC9nPiYjeGE7CQk8ZyBpZD0ic2hhcGU4MzM4LTEyIiB0cmFuc2Zvcm09InRyYW5zbGF0ZSg1MC44NjQxLC0yNy4xMDA1KSI+JiN4YTsJCQk8dGl0bGUgaWQ9InRpdGxlMTQ0OTg2Ij5TaGVldC44MzM4PC90aXRsZT4mI3hhOwkJCTxwYXRoIGlkPSJwYXRoMTQ0OTg4IiBpbmtzY2FwZTpjb25uZWN0b3ItY3VydmF0dXJlPSIwIiBzdHlsZT0iZmlsbDojRkZGRkZGOyIgZD0iTTExLjE4LDcwLjg0YzAsMC45LTAuMTcsMS42OC0wLjUsMi4zNiAgICAgYy0wLjM0LDAuNjgtMC43OSwxLjI1LTEuMzcsMS43Yy0wLjU3LDAuNDYtMS4yNCwwLjgtMi4wMSwxLjAzYy0wLjc2LDAuMjMtMS41OSwwLjM0LTIuNDYsMC4zNGMtMC41OSwwLTEuMTQtMC4wNS0xLjY0LTAuMTQgICAgIGMtMC41MS0wLjEtMC45Ni0wLjIyLTEuMzUtMC4zNWMtMC4zOS0wLjE0LTAuNzEtMC4yOC0wLjk3LTAuNDRjLTAuMjYtMC4xNS0wLjQ1LTAuMjgtMC41Ni0wLjM5Yy0wLjEyLTAuMTItMC4yLTAuMjgtMC4yNS0wLjUgICAgIEMwLjAzLDc0LjI0LDAsNzMuOTIsMCw3My41MmMwLTAuMjgsMC4wMS0wLjUsMC4wMy0wLjY5YzAuMDEtMC4xOCwwLjA0LTAuMzMsMC4wOC0wLjQ1YzAuMDQtMC4xMSwwLjEtMC4xOSwwLjE2LTAuMjQgICAgIGMwLjA3LTAuMDUsMC4xNC0wLjA4LDAuMjMtMC4wOGMwLjEzLDAsMC4zLDAuMDgsMC41MywwLjIyYzAuMjIsMC4xNSwwLjUxLDAuMzEsMC44NiwwLjQ4YzAuMzYsMC4xOCwwLjc4LDAuMzQsMS4yNywwLjQ5ICAgICBjMC40OCwwLjE0LDEuMDUsMC4yMiwxLjY5LDAuMjJjMC40MywwLDAuODEtMC4wNiwxLjE0LTAuMTZjMC4zNC0wLjEsMC42Mi0wLjI0LDAuODUtMC40M2MwLjI0LTAuMTgsMC40MS0wLjQxLDAuNTQtMC42OCAgICAgYzAuMTItMC4yOCwwLjE5LTAuNTgsMC4xOS0wLjkyYzAtMC4zOS0wLjExLTAuNzItMC4zMi0xYy0wLjIxLTAuMjctMC40OS0wLjUyLTAuODMtMC43NGMtMC4zNC0wLjIxLTAuNzMtMC40Mi0xLjE2LTAuNjEgICAgIGMtMC40My0wLjE5LTAuODgtMC4zOS0xLjMzLTAuNmMtMC40Ni0wLjIxLTAuOTEtMC40NS0xLjM0LTAuNzJjLTAuNDMtMC4yNy0wLjgyLTAuNTktMS4xNS0wLjk3Yy0wLjM0LTAuMzctMC42Mi0wLjgxLTAuODMtMS4zMyAgICAgYy0wLjIyLTAuNTEtMC4zMi0xLjEyLTAuMzItMS44M2MwLTAuODIsMC4xNS0xLjU1LDAuNDYtMi4xN2MwLjMtMC42MiwwLjcxLTEuMTMsMS4yMy0xLjU1YzAuNTEtMC40MSwxLjEyLTAuNzEsMS44Mi0wLjkxICAgICBjMC43LTAuMjEsMS40NS0wLjMxLDIuMjMtMC4zMWMwLjQxLDAsMC44MSwwLjAzLDEuMjIsMC4wOWMwLjQsMC4wNywwLjc4LDAuMTUsMS4xMywwLjI2YzAuMzUsMC4xLDAuNjcsMC4yMiwwLjk0LDAuMzUgICAgIGMwLjI4LDAuMTQsMC40NiwwLjI0LDAuNTQsMC4zM2MwLjA5LDAuMDksMC4xNSwwLjE3LDAuMTgsMC4yM2MwLjAzLDAuMDYsMC4wNiwwLjE0LDAuMDgsMC4yNGMwLjAyLDAuMTEsMC4wNCwwLjIzLDAuMDUsMC4zOSAgICAgYzAsMC4xNSwwLjAxLDAuMzQsMC4wMSwwLjU3YzAsMC4yNi0wLjAxLDAuNDgtMC4wMiwwLjY1Yy0wLjAxLDAuMTgtMC4wNCwwLjMyLTAuMDcsMC40NGMtMC4wMywwLjExLTAuMDcsMC4yLTAuMTMsMC4yNSAgICAgcy0wLjEzLDAuMDgtMC4yMywwLjA4Yy0wLjEsMC0wLjI1LTAuMDYtMC40Ni0wLjE4Yy0wLjIyLTAuMTMtMC40OC0wLjI2LTAuNzgtMC40MWMtMC4zMS0wLjE0LTAuNjctMC4yOC0xLjA3LTAuNCAgICAgYy0wLjQxLTAuMTItMC44Ni0wLjE4LTEuMzQtMC4xOGMtMC4zOCwwLTAuNzEsMC4wNS0wLjk5LDAuMTRjLTAuMjgsMC4xLTAuNTIsMC4yMi0wLjcxLDAuMzljLTAuMTksMC4xNi0wLjMzLDAuMzYtMC40MiwwLjU5ICAgICBjLTAuMDksMC4yMy0wLjE0LDAuNDctMC4xNCwwLjcyYzAsMC4zOCwwLjEsMC43MSwwLjMxLDAuOTljMC4yMSwwLjI4LDAuNDksMC41MiwwLjgzLDAuNzRjMC4zNSwwLjIyLDAuNzUsMC40MiwxLjE5LDAuNjEgICAgIHMwLjg5LDAuMzksMS4zNSwwLjZzMC45MSwwLjQ1LDEuMzUsMC43MmMwLjQ0LDAuMjcsMC44MywwLjU5LDEuMTgsMC45N2MwLjM0LDAuMzcsMC42MiwwLjgxLDAuODMsMS4zMlMxMS4xOCw3MC4xNSwxMS4xOCw3MC44NHogICAgICIvPiYjeGE7CQk8L2c+JiN4YTsJPC9nPiYjeGE7PC9nPiYjeGE7PC9zdmc+;" vertex="1" parent="1">
          <mxGeometry x="209.99999999999983" y="217" width="72" height="72" as="geometry" />
        </mxCell>
        <mxCell id="_bdZBCu3duX-sdHMDtxV-33" value="" style="group" vertex="1" connectable="0" parent="1">
          <mxGeometry x="630" y="190" width="350" height="360" as="geometry" />
        </mxCell>
        <mxCell id="_bdZBCu3duX-sdHMDtxV-11" value="" style="rounded=0;whiteSpace=wrap;html=1;" vertex="1" parent="_bdZBCu3duX-sdHMDtxV-33">
          <mxGeometry width="350" height="360" as="geometry" />
        </mxCell>
        <mxCell id="_bdZBCu3duX-sdHMDtxV-13" value="" style="rounded=0;whiteSpace=wrap;html=1;" vertex="1" parent="_bdZBCu3duX-sdHMDtxV-33">
          <mxGeometry x="40" y="50" width="120" height="210" as="geometry" />
        </mxCell>
        <mxCell id="_bdZBCu3duX-sdHMDtxV-1" value="" style="image;aspect=fixed;html=1;points=[];align=center;fontSize=12;image=img/lib/azure2/compute/Kubernetes_Services.svg;" vertex="1" parent="_bdZBCu3duX-sdHMDtxV-33">
          <mxGeometry x="10" y="290" width="68" height="60" as="geometry" />
        </mxCell>
        <mxCell id="_bdZBCu3duX-sdHMDtxV-29" style="edgeStyle=orthogonalEdgeStyle;curved=1;rounded=0;orthogonalLoop=1;jettySize=auto;html=1;exitX=0.1;exitY=0.2;exitDx=0;exitDy=0;exitPerimeter=0;" edge="1" parent="_bdZBCu3duX-sdHMDtxV-33" source="_bdZBCu3duX-sdHMDtxV-23" target="_bdZBCu3duX-sdHMDtxV-9">
          <mxGeometry relative="1" as="geometry" />
        </mxCell>
        <mxCell id="_bdZBCu3duX-sdHMDtxV-23" value="" style="aspect=fixed;sketch=0;html=1;dashed=0;whitespace=wrap;verticalLabelPosition=bottom;verticalAlign=top;fillColor=#2875E2;strokeColor=#ffffff;points=[[0.005,0.63,0],[0.1,0.2,0],[0.9,0.2,0],[0.5,0,0],[0.995,0.63,0],[0.72,0.99,0],[0.5,1,0],[0.28,0.99,0]];shape=mxgraph.kubernetes.icon2;prIcon=svc" vertex="1" parent="_bdZBCu3duX-sdHMDtxV-33">
          <mxGeometry x="160" y="280" width="50" height="48" as="geometry" />
        </mxCell>
        <mxCell id="_bdZBCu3duX-sdHMDtxV-18" value="" style="rounded=0;whiteSpace=wrap;html=1;" vertex="1" parent="_bdZBCu3duX-sdHMDtxV-33">
          <mxGeometry x="210" y="50" width="120" height="210" as="geometry" />
        </mxCell>
        <mxCell id="_bdZBCu3duX-sdHMDtxV-19" value="" style="aspect=fixed;sketch=0;html=1;dashed=0;whitespace=wrap;verticalLabelPosition=bottom;verticalAlign=top;fillColor=#2875E2;strokeColor=#ffffff;points=[[0.005,0.63,0],[0.1,0.2,0],[0.9,0.2,0],[0.5,0,0],[0.995,0.63,0],[0.72,0.99,0],[0.5,1,0],[0.28,0.99,0]];shape=mxgraph.kubernetes.icon2;kubernetesLabel=1;prIcon=node" vertex="1" parent="_bdZBCu3duX-sdHMDtxV-33">
          <mxGeometry x="214" y="51" width="50" height="48" as="geometry" />
        </mxCell>
        <mxCell id="_bdZBCu3duX-sdHMDtxV-22" value="" style="aspect=fixed;sketch=0;html=1;dashed=0;whitespace=wrap;verticalLabelPosition=bottom;verticalAlign=top;fillColor=#2875E2;strokeColor=#ffffff;points=[[0.005,0.63,0],[0.1,0.2,0],[0.9,0.2,0],[0.5,0,0],[0.995,0.63,0],[0.72,0.99,0],[0.5,1,0],[0.28,0.99,0]];shape=mxgraph.kubernetes.icon2;kubernetesLabel=1;prIcon=pod" vertex="1" parent="_bdZBCu3duX-sdHMDtxV-33">
          <mxGeometry x="245" y="156" width="50" height="48" as="geometry" />
        </mxCell>
        <mxCell id="_bdZBCu3duX-sdHMDtxV-12" value="" style="aspect=fixed;sketch=0;html=1;dashed=0;whitespace=wrap;verticalLabelPosition=bottom;verticalAlign=top;fillColor=#2875E2;strokeColor=#ffffff;points=[[0.005,0.63,0],[0.1,0.2,0],[0.9,0.2,0],[0.5,0,0],[0.995,0.63,0],[0.72,0.99,0],[0.5,1,0],[0.28,0.99,0]];shape=mxgraph.kubernetes.icon2;kubernetesLabel=1;prIcon=node" vertex="1" parent="_bdZBCu3duX-sdHMDtxV-33">
          <mxGeometry x="46" y="51" width="50" height="48" as="geometry" />
        </mxCell>
        <mxCell id="_bdZBCu3duX-sdHMDtxV-9" value="" style="aspect=fixed;sketch=0;html=1;dashed=0;whitespace=wrap;verticalLabelPosition=bottom;verticalAlign=top;fillColor=#2875E2;strokeColor=#ffffff;points=[[0.005,0.63,0],[0.1,0.2,0],[0.9,0.2,0],[0.5,0,0],[0.995,0.63,0],[0.72,0.99,0],[0.5,1,0],[0.28,0.99,0]];shape=mxgraph.kubernetes.icon2;kubernetesLabel=1;prIcon=pod" vertex="1" parent="_bdZBCu3duX-sdHMDtxV-33">
          <mxGeometry x="75" y="156" width="50" height="48" as="geometry" />
        </mxCell>
        <mxCell id="_bdZBCu3duX-sdHMDtxV-30" style="edgeStyle=orthogonalEdgeStyle;curved=1;rounded=0;orthogonalLoop=1;jettySize=auto;html=1;exitX=0.9;exitY=0.2;exitDx=0;exitDy=0;exitPerimeter=0;entryX=0.5;entryY=1;entryDx=0;entryDy=0;entryPerimeter=0;" edge="1" parent="_bdZBCu3duX-sdHMDtxV-33" source="_bdZBCu3duX-sdHMDtxV-23" target="_bdZBCu3duX-sdHMDtxV-22">
          <mxGeometry relative="1" as="geometry" />
        </mxCell>
        <mxCell id="_bdZBCu3duX-sdHMDtxV-31" value="node 1" style="text;strokeColor=none;align=center;fillColor=none;html=1;verticalAlign=middle;whiteSpace=wrap;rounded=0;" vertex="1" parent="_bdZBCu3duX-sdHMDtxV-33">
          <mxGeometry x="96" y="60" width="60" height="30" as="geometry" />
        </mxCell>
        <mxCell id="_bdZBCu3duX-sdHMDtxV-32" value="node 2" style="text;strokeColor=none;align=center;fillColor=none;html=1;verticalAlign=middle;whiteSpace=wrap;rounded=0;" vertex="1" parent="_bdZBCu3duX-sdHMDtxV-33">
          <mxGeometry x="268" y="60" width="60" height="30" as="geometry" />
        </mxCell>
      </root>
    </mxGraphModel>
  </diagram>
</mxfile>
